<svg width="50" height="51" viewBox="0 0 50 51" fill="none" xmlns="http://www.w3.org/2000/svg">
<path d="M45.8337 24.5973C45.8337 35.6039 36.5049 44.5279 25.0003 44.5279C23.6476 44.5298 22.2987 44.4046 20.9699 44.1552C20.0135 43.9754 19.5353 43.8856 19.2014 43.9367C18.8676 43.9877 18.3945 44.2392 17.4482 44.7425C14.7715 46.166 11.6502 46.6687 8.64847 46.1104C9.78937 44.7071 10.5686 43.0233 10.9124 41.2183C11.1207 40.1142 10.6045 39.0417 9.83135 38.2564C6.31976 34.6906 4.16699 29.8856 4.16699 24.5973C4.16699 13.5908 13.4957 4.66666 25.0003 4.66666C36.5049 4.66666 45.8337 13.5908 45.8337 24.5973Z" stroke="white" stroke-width="3.125" stroke-linejoin="round"/>
<path d="M24.9909 25.5H25.0097M33.3149 25.5H33.3337M16.667 25.5H16.6857" stroke="white" stroke-width="4.16667" stroke-linecap="round" stroke-linejoin="round"/>
</svg>
