<svg width="50" height="51" viewBox="0 0 50 51" fill="none" xmlns="http://www.w3.org/2000/svg">
<path d="M41.1357 27.5833C42.7834 25.2212 43.7497 22.3483 43.7497 19.25C43.7497 11.1958 37.2205 4.66666 29.1663 4.66666C21.1122 4.66666 14.583 11.1958 14.583 19.25C14.583 21.4867 15.0865 23.6056 15.9864 25.5" stroke="white" stroke-width="3.125" stroke-linecap="round" stroke-linejoin="round"/>
<path d="M25.9111 24.8056V13.6944M29.1663 13.6944V10.9167M29.1663 27.5833V24.8056M25.9111 19.25H32.4216M32.4216 19.25C33.5003 19.25 34.3747 20.1827 34.3747 21.3333V22.7223C34.3747 23.8729 33.5003 24.8056 32.4216 24.8056H23.958M32.4216 19.25C33.5003 19.25 34.3747 18.3172 34.3747 17.1667V15.7778C34.3747 14.6272 33.5003 13.6944 32.4216 13.6944H23.958" stroke="white" stroke-width="3.125" stroke-linecap="round" stroke-linejoin="round"/>
<path d="M6.25 29.6667H11.2392C11.852 29.6667 12.4564 29.8048 13.0045 30.07L17.2586 32.1283C17.8068 32.3935 18.4111 32.5314 19.024 32.5314H21.196C23.2969 32.5314 25 34.1796 25 36.2125C25 36.2946 24.9438 36.3669 24.8621 36.3894L19.5685 37.8531C18.6189 38.1156 17.6021 38.0242 16.7188 37.5967L12.1711 35.3964M25 34.875L34.5683 31.9352C36.2646 31.4067 38.0981 32.0333 39.1606 33.5048C39.929 34.5685 39.616 36.0921 38.4969 36.7379L22.8394 45.7719C21.8435 46.3464 20.6686 46.4867 19.5733 46.1617L6.25 42.2081" stroke="white" stroke-width="3.125" stroke-linecap="round" stroke-linejoin="round"/>
</svg>
