<svg width="50" height="51" viewBox="0 0 50 51" fill="none" xmlns="http://www.w3.org/2000/svg">
<path d="M22.9305 44.2502H20.0117C12.5424 44.2502 8.8078 44.2502 6.48739 41.8858C4.16699 39.5213 4.16699 35.7156 4.16699 28.1044C4.16699 20.4932 4.16699 16.6876 6.48739 14.3231C8.8078 11.9586 12.5424 11.9586 20.0117 11.9586H27.9341C35.4032 11.9586 39.138 11.9586 41.4585 14.3231C43.2437 16.1423 43.6553 18.8146 43.7503 23.4169" stroke="white" stroke-width="3.125" stroke-linecap="round"/>
<path d="M41.7022 42.2152L45.8337 46.3333M43.8607 37.0135C43.8607 32.956 40.5714 29.6667 36.5139 29.6667C32.4562 29.6667 29.167 32.956 29.167 37.0135C29.167 41.0712 32.4562 44.3606 36.5139 44.3606C40.5714 44.3606 43.8607 41.0712 43.8607 37.0135Z" stroke="white" stroke-width="3.125" stroke-linecap="round" stroke-linejoin="round"/>
<path d="M33.3331 11.9583L33.126 11.3144C32.0948 8.10601 31.5791 6.5018 30.3514 5.58422C29.1239 4.66666 27.4933 4.66666 24.232 4.66666H23.6839C20.4227 4.66666 18.7921 4.66666 17.5645 5.58422C16.3369 6.5018 15.8212 8.10601 14.79 11.3144L14.583 11.9583" stroke="white" stroke-width="3.125"/>
</svg>
