<svg width="14" height="14" viewBox="0 0 14 14" fill="none" xmlns="http://www.w3.org/2000/svg">
<path d="M12.2499 0.875H1.74726C1.26601 0.875 0.875 1.27148 0.875 1.7582V12.2417C0.875 12.7284 1.26601 13.1249 1.74726 13.1249H12.2499C12.7312 13.1249 13.1249 12.7284 13.1249 12.2417V1.7582C13.1249 1.27148 12.7312 0.875 12.2499 0.875ZM4.57732 11.3749H2.76171V5.52887H4.58005V11.3749H4.57732ZM3.66951 4.73044C3.08709 4.73044 2.61678 4.2574 2.61678 3.67771C2.61678 3.09803 3.08709 2.62499 3.66951 2.62499C4.24919 2.62499 4.72224 3.09803 4.72224 3.67771C4.72224 4.26013 4.25193 4.73044 3.66951 4.73044ZM11.3831 11.3749H9.56752V8.5312C9.56752 7.85308 9.55384 6.98082 8.62416 6.98082C7.67808 6.98082 7.53316 7.71909 7.53316 8.48198V11.3749H5.71754V5.52887H7.45933V6.3273H7.48394C7.72729 5.86793 8.32065 5.38395 9.20385 5.38395C11.0413 5.38395 11.3831 6.59527 11.3831 8.17026V11.3749Z" fill="white"/>
</svg>
